<?xml version="1.0" encoding="UTF-8"?>
<svg width="48px" height="48px" viewBox="0 0 48 48" version="1.1" xmlns="http://www.w3.org/2000/svg" xmlns:xlink="http://www.w3.org/1999/xlink">
    <title>PDF Icon</title>
    <g stroke="none" stroke-width="1" fill="none" fill-rule="evenodd">
        <g transform="translate(8.000000, 4.000000)">
            <path d="M2,0 L22,0 L32,10 L32,40 C32,41.1045695 31.1045695,42 30,42 L2,42 C0.8954305,42 1.3527075e-16,41.1045695 0,40 L0,2 C-1.3527075e-16,0.8954305 0.8954305,2.02906125e-16 2,0 Z" fill="#E53935"></path>
            <path d="M22,0 L32,10 L24,10 C22.8954305,10 22,9.1045695 22,8 L22,0 Z" fill="#FF8A80"></path>
            <path d="M8.5,22 L8.5,16 L12.5,16 C13.6045695,16 14.5,16.8954305 14.5,18 L14.5,20 C14.5,21.1045695 13.6045695,22 12.5,22 L8.5,22 Z M10.5,20 L12.5,20 L12.5,18 L10.5,18 L10.5,20 Z" fill="#FFFFFF"></path>
            <path d="M15.5,22 L15.5,16 L19.5,16 C20.6045695,16 21.5,16.8954305 21.5,18 L21.5,18 C21.5,19.1045695 20.6045695,20 19.5,20 L17.5,20 L17.5,22 L15.5,22 Z M17.5,18 L19.5,18 L19.5,18 L17.5,18 L17.5,18 Z" fill="#FFFFFF"></path>
            <path d="M22.5,22 L22.5,16 L24.5,16 L24.5,22 L22.5,22 Z" fill="#FFFFFF"></path>
        </g>
    </g>
</svg>
