<?xml version="1.0" encoding="UTF-8"?>
<svg width="48px" height="48px" viewBox="0 0 48 48" version="1.1" xmlns="http://www.w3.org/2000/svg" xmlns:xlink="http://www.w3.org/1999/xlink">
    <title>ZIP Icon</title>
    <g stroke="none" stroke-width="1" fill="none" fill-rule="evenodd">
        <g transform="translate(8.000000, 4.000000)">
            <path d="M2,0 L22,0 L32,10 L32,40 C32,41.1045695 31.1045695,42 30,42 L2,42 C0.8954305,42 1.3527075e-16,41.1045695 0,40 L0,2 C-1.3527075e-16,0.8954305 0.8954305,2.02906125e-16 2,0 Z" fill="#7B1FA2"></path>
            <path d="M22,0 L32,10 L24,10 C22.8954305,10 22,9.1045695 22,8 L22,0 Z" fill="#CE93D8"></path>
            <path d="M12,22 L12,16 L14,16 L16,19 L16,16 L18,16 L18,22 L16,22 L14,19 L14,22 L12,22 Z" fill="#FFFFFF"></path>
            <path d="M19,22 L19,16 L21,16 L21,22 L19,22 Z" fill="#FFFFFF"></path>
            <path d="M22,22 L22,16 L24,16 L26,19 L26,16 L28,16 L28,22 L26,22 L24,19 L24,22 L22,22 Z" fill="#FFFFFF"></path>
        </g>
    </g>
</svg>
