<?xml version="1.0" encoding="UTF-8"?>
<svg width="24px" height="24px" viewBox="0 0 24 24" version="1.1" xmlns="http://www.w3.org/2000/svg" xmlns:xlink="http://www.w3.org/1999/xlink">
    <g stroke="none" stroke-width="1" fill="none" fill-rule="evenodd">
        <circle fill="#FFD700" cx="8" cy="6" r="3"></circle>
        <path d="M17,14 L17,14 C19.2091,14 21,12.2091 21,10 C21,7.79086 19.2091,6 17,6 C16.7429,6 16.4923,6.02708 16.25,6.07813 C15.9398,4.29386 14.3607,3 12.5,3 C10.5,3 8.9,4.5 8.75,6.4375 C8.67,6.4,8.59,6.38 8.5,6.38 C6.84315,6.38 5.5,7.72315 5.5,9.38 C5.5,11.0369 6.84315,12.38 8.5,12.38 L17,12.38 L17,14 Z" fill="#FFFFFF" stroke="#CCCCCC"></path>
        <line x1="8" y1="16" x2="7" y2="19" stroke="#4A90E2" stroke-width="1" stroke-linecap="round"></line>
        <line x1="12" y1="16" x2="11" y2="19" stroke="#4A90E2" stroke-width="1" stroke-linecap="round"></line>
        <line x1="16" y1="16" x2="15" y2="19" stroke="#4A90E2" stroke-width="1" stroke-linecap="round"></line>
    </g>
</svg>
