<?xml version="1.0" encoding="UTF-8"?>
<svg width="24px" height="24px" viewBox="0 0 24 24" version="1.1" xmlns="http://www.w3.org/2000/svg" xmlns:xlink="http://www.w3.org/1999/xlink">
    <g stroke="none" stroke-width="1" fill="none" fill-rule="evenodd">
        <circle fill="#FFD700" cx="8" cy="8" r="3"></circle>
        <path d="M17,16 L17,16 C19.2091,16 21,14.2091 21,12 C21,9.79086 19.2091,8 17,8 C16.7429,8 16.4923,8.02708 16.25,8.07813 C15.9398,6.29386 14.3607,5 12.5,5 C10.5,5 8.9,6.5 8.75,8.4375 C8.67,8.4,8.59,8.38 8.5,8.38 C6.84315,8.38 5.5,9.72315 5.5,11.38 C5.5,13.0369 6.84315,14.38 8.5,14.38 L17,14.38 L17,16 Z" fill="#FFFFFF" stroke="#CCCCCC"></path>
    </g>
</svg>
