<?xml version="1.0" encoding="UTF-8"?>
<svg width="24px" height="24px" viewBox="0 0 24 24" version="1.1" xmlns="http://www.w3.org/2000/svg">
    <g stroke="none" stroke-width="1" fill="none" fill-rule="evenodd">
        <path d="M8,15 C5.79086,15 4,13.2091 4,11 C4,8.79086 5.79086,7 8,7 C8.15032,7 8.29874,7.00966 8.44505,7.02848 C9.27166,5.20211 11.0426,4 13,4 C15.7614,4 18,6.23858 18,9 C18,9.11331 17.9962,9.22559 17.9887,9.33661 C19.7131,9.83345 21,11.3807 21,13.2 C21,15.4091 19.2091,17.2 17,17.2 L8,17.2 L8,15 Z" stroke="#9E9E9E" stroke-width="2" fill="#E0E0E0"/>
        <path d="M12,14 L10,18 L13,18 L11,22" stroke="#FFB300" stroke-width="2" stroke-linecap="round" stroke-linejoin="round"/>
    </g>
</svg>
